<svg version="1.2" xmlns="http://www.w3.org/2000/svg" viewBox="0 0 32 32" width="32" height="32">
	<title>icon</title>
	<style>
		.s0 { fill: #5a00ff } 
		.s1 { fill: #ffffff } 
	</style>
	<path id="Layer 2" class="s0" d="m6 2c0 0-4 0-4 4 0 4 0 15 0 15 0 0 0 4 4 4 4 0 12 0 12 0v6l5-6h3c0 0 4 0 4-4 0-4 0-15 0-15 0 0 0-4-4-4-4 0-20 0-20 0z"/>
	<path id="?" class="s1" d="m18.2 16.5v0.6h-4.2v-0.6c0-0.7-0.1-2.2 0.1-2.7q0.4-0.7 1.7-1.9l0.7-0.7q0.7-0.6 1-1.1 0.3-0.5 0.3-1.1 0-0.8-0.6-1.3-0.5-0.4-1.5-0.4-1 0-2.1 0.4c-0.7 0.2-1.8 0.9-2.6 1.4v-3.6c1-0.4 2.1-0.9 2.9-1.1q1.2-0.2 2.3-0.2 2.8 0 4.3 1.2 1.5 1.1 1.5 3.4 0 1.1-0.4 2-0.5 0.9-1.6 2l-0.7 0.6q-0.8 0.8-1.1 1.2c-0.1 0.3 0 1.6 0 1.9zm-4.2 5.5v-3h4.1l-0.1 3.1z"/>
</svg>