<svg version="1.2" xmlns="http://www.w3.org/2000/svg" viewBox="0 0 1080 480" width="1080" height="480">
	<title>logo</title>
	<defs>
		<filter x="-50%" y="-50%" width="200%" height="200%" id="f1" ><feDropShadow dx="1.4624321208617683" dy="11.910553819695865" stdDeviation="2.5" flood-color="#edeaff" flood-opacity="1"/></filter>
		<filter x="-50%" y="-50%" width="200%" height="200%" id="f2" ><feDropShadow dx="1.4624321208617683" dy="11.910553819695865" stdDeviation="2.5" flood-color="#edeaff" flood-opacity="1"/></filter>
	</defs>
	<style>
		tspan { white-space:pre } 
		.s0 { filter: url(#f1);fill: #1d124e;stroke: #ffa370;paint-order:stroke fill markers;stroke-linejoin: round;stroke-width: 12 } 
		.s1 { filter: url(#f2);fill: #1d124e;stroke: #6b4ee8;paint-order:stroke fill markers;stroke-linejoin: round;stroke-width: 12 } 
	</style>
	<path id="МИМ copy" class="s0" d="m194.6 73.3l81.9-7-27 161.2-59.9 5.1 28.4-115.8-55.2 118.1-60.6 5.1 8.3-113.2-35.3 115.5-59.9 5.1 63-164.2 78.6-6.7-9.2 104.3zm118.4-9.8l56.7-4.8-38.7 126.1 90.9-130.6 85.1-7.2q-12.1 38-24 81.3-12 43.5-20.9 81.2l-59.4 5.1 38-122.8-89.8 127.2-82.8 7q13.8-43.7 24.3-81.5 10.4-37.7 20.6-81zm347-29.7l81.8-6.9-26.9 161.2-59.9 5.1 28.4-115.8-55.2 118.1-60.6 5.1 8.2-113.2-35.3 115.5-59.9 5.1 63-164.3 78.7-6.7-9.2 104.4z"/>
	<path id="Квиз copy" fill-rule="evenodd" class="s1" d="m505.1 344.9q11.4 11.1 15.1 25.6 4 14.2 5.6 35.4 1.5 17.1 3.3 24l-73.2 6.4q-0.4-4.2 0-14.8 0.7-11.6-0.1-19.3-0.7-7.7-4.3-13.2-6-8.5-18-10-11.7-1.7-33.6 0.2l-17 63.5-62 5.4q15.3-50 27-93.4 11.6-43.5 23-93.1l62-5.5-18 67.1q2.4 0 7.4-0.4 49.5-43 75.8-72.4l80.7-7-98.8 86.4q14.7 5.2 25.1 15.1zm172.4 4q42.6-3.7 35.1 24.3-5.4 20-23.2 32.1-17.6 12.1-56.2 15.5l-84.2 7.4q9.1-29.4 20-70.3 11-40.9 17.6-70l51.5-4.6v0.3l32.4-2.8q23.4-2.1 35.5 0.9 12.4 2.7 15.9 9.6 3.4 7 0.3 18.6-6.9 25.9-44.7 39zm-29.9-31.8l-19 1.7-4.8 18 19-1.7q11.4-1 16.7-3.4 5.3-2.8 6.9-8.4 1.1-4.4-3.4-5.7-4.2-1.4-15.4-0.5zm-37.5 71.1l18.9-1.7q14.2-1.2 20-3.7 5.8-2.8 7.3-8.4 1.3-4.9-3.5-6.8-4.9-1.8-18.6-0.6l-18.9 1.7zm231.1-122.6l71.2-6.3q-11.2 37.4-19.3 67.5-7.9 29.5-16.8 67.2l-51.1 4.4 26.6-89.1-61.9 92.2-69.5 6.1q10.6-34 19.5-67.4 9.1-34 16.6-67.2l49-4.3-26.9 91.4zm182.2 50.8q2.5-0.4 7-0.8 16.7-1.5 22.3 5.8 5.8 7.3 2.9 18.1-6.1 22.8-29.6 37.2-23.6 14.3-55.2 17.1-27.7 2.4-46.2-5.5-18.3-7.9-21.6-30.2l11.5-3.8q24.7-7.9 37.4-14.3 1.8 7.6 7.9 11.4 6.1 3.4 18.1 2.4 13.4-1.2 21.1-4.4 7.9-3.2 9.5-9.1 1.2-4.6-6.3-5.7-7.5-1.1-22.4 0.2l-14.2 1.2 9.1-33.9 8.4-0.7q13.7-1.2 22.3-3.2 8.6-2 9.7-6.4 1.2-4.4-2.8-6.5-4.1-2.2-12.1-1.5-12.9 1.2-21.7 6.7-8.5 5.5-17.9 17.1-17.4-6.7-39.9-8.3 31-45.6 91.5-50.9 17.7-1.5 30.9 2.6 13.3 3.8 19.3 12.3 6.1 8.3 3 19.6-6.6 24.7-42 33.5z"/>
</svg>